<svg width="500" height="135" viewBox="0 0 500 135" fill="none" xmlns="http://www.w3.org/2000/svg">
<g clip-path="url(#clip0_13_176)">
<path d="M158.844 50.9903L157.602 60.9202C153.54 59.5661 148.801 58.6634 145.416 58.6634C139.097 58.6634 136.84 61.1458 136.84 64.8695C136.84 75.7021 162.455 71.4142 162.455 90.5968C162.455 100.301 155.233 107.861 140.564 107.861C135.373 107.861 129.393 106.846 125.105 105.943L126.459 95.4489C131.537 97.3671 137.404 98.3827 141.241 98.3827C147.447 98.3827 150.155 96.0131 150.155 91.6124C150.155 80.7798 124.766 84.842 124.766 65.9979C124.766 56.858 131.762 49.5234 146.093 49.5234C149.929 49.5234 154.556 50.0876 158.844 50.9903Z" fill="white"/>
<path d="M213.489 50.6518L193.403 106.733H179.186L159.439 50.6518H172.528L183.135 81.7954C184.602 86.4218 185.617 90.1455 186.633 94.2077H186.746C187.648 90.3711 188.664 86.4218 190.018 81.9082L200.625 50.6518H213.489Z" fill="white"/>
<path d="M258.231 80.667H222.123C222.235 92.9664 227.99 98.2699 238.597 98.2699C244.126 98.2699 249.655 97.2543 255.297 95.336L256.764 104.363C250.558 106.507 243.675 107.861 237.13 107.861C219.866 107.861 209.936 98.8341 209.936 79.2001C209.936 62.7256 219.64 49.5234 235.889 49.5234C251.912 49.5234 258.57 60.2431 258.57 73.2196C258.57 76.9433 258.231 80.667 258.231 80.667ZM235.212 58.5505C227.765 58.5505 223.364 64.4182 222.348 72.3169H246.496C246.721 63.5155 242.321 58.5505 235.212 58.5505Z" fill="white"/>
<path d="M277.497 106.733H265.424V24.3604H277.497V106.733Z" fill="white"/>
<path d="M318.187 96.6901L318.977 106.394C315.592 107.184 311.191 107.748 307.581 107.748C295.62 107.748 291.896 103.009 291.896 90.2583V60.0175H281.402V50.6518H291.896V32.8233L303.97 29.5509V50.6518H318.526V60.0175H303.97V87.7758C303.97 95.336 305.549 97.5928 311.079 97.5928C313.561 97.5928 316.043 97.2543 318.187 96.6901Z" fill="white"/>
<path d="M374.271 77.7332C374.271 94.659 364.454 107.861 346.4 107.861C330.828 107.861 320.673 98.9469 320.673 79.6514C320.673 62.7256 330.49 49.5234 348.544 49.5234C364.116 49.5234 374.271 58.4377 374.271 77.7332ZM361.746 78.6359C361.746 66.4493 356.442 59.6789 347.528 59.6789C338.84 59.6789 333.198 66.1108 333.198 78.7487C333.198 90.9353 338.388 97.5928 347.303 97.5928C355.653 97.5928 361.746 91.7252 361.746 78.6359Z" fill="white"/>
<path d="M391.527 134.265H379.453V50.6518H390.849C390.849 53.5856 390.624 58.0992 390.172 61.1458H390.398C393.558 54.037 399.989 49.5234 408.565 49.5234C421.88 49.5234 429.215 59.0019 429.215 75.9277C429.215 95.6746 418.721 107.523 399.989 107.523C396.83 107.523 393.896 107.184 391.527 106.846V134.265ZM391.527 79.6514V96.9158C394.122 97.7057 396.943 98.0442 400.328 98.0442C409.919 98.0442 416.464 92.1766 416.464 77.0561C416.464 65.7722 412.966 59.4533 405.406 59.4533C396.379 59.4533 391.527 70.0601 391.527 79.6514Z" fill="white"/>
<path d="M449.37 33.1618C449.37 37.3368 445.872 40.722 441.697 40.722C437.409 40.722 433.911 37.4497 433.911 33.1618C433.911 28.9867 437.409 25.6016 441.697 25.6016C445.872 25.6016 449.37 28.9867 449.37 33.1618ZM447.677 106.733H435.603V50.6518H447.677V106.733Z" fill="white"/>
<path d="M500 106.733H488.378C488.378 103.122 488.49 99.3982 488.942 96.3516L488.829 96.2388C486.121 102.896 479.125 107.861 470.21 107.861C460.619 107.861 454.526 101.429 454.526 92.2894C454.526 79.6514 467.051 72.8811 487.588 72.8811V70.173C487.588 62.6127 484.767 58.8891 476.529 58.8891C471.339 58.8891 464.794 60.4688 459.491 62.6127L457.573 53.4728C463.666 51.216 471 49.5234 477.884 49.5234C494.471 49.5234 499.661 56.9708 499.661 69.1574V91.3867C499.661 96.2388 499.774 101.994 500 106.733ZM487.588 82.6981V81.0055C470.888 81.0055 466.261 85.5191 466.261 90.8225C466.261 95.1104 469.195 98.3827 473.934 98.3827C482.059 98.3827 487.588 90.3711 487.588 82.6981Z" fill="white"/>
<path d="M49.042 126.869C76.127 126.869 98.084 104.912 98.084 77.8269C98.0839 50.7419 76.127 28.785 49.042 28.7849C21.9569 28.7849 2.42544e-05 50.7419 -3.0756e-05 77.8269C-3.0756e-05 104.912 21.9569 126.869 49.042 126.869Z" fill="url(#paint0_linear_13_176)"/>
<path d="M44.5159 24.1884C59.7194 1.63276 75.0358 8.64129 99.3764 11.5722C92.5355 29.7099 66.069 26.4787 44.5159 24.1884Z" fill="url(#paint1_linear_13_176)"/>
</g>
<defs>
<linearGradient id="paint0_linear_13_176" x1="92.9345" y1="33.933" x2="5.14725" y2="121.72" gradientUnits="userSpaceOnUse">
<stop stop-color="#FF8A33"/>
<stop offset="1" stop-color="#FF6A00"/>
</linearGradient>
<linearGradient id="paint1_linear_13_176" x1="92.5047" y1="0.489949" x2="51.4509" y2="22.6751" gradientUnits="userSpaceOnUse">
<stop stop-color="#6FC373"/>
<stop offset="1" stop-color="#43A047"/>
</linearGradient>
<clipPath id="clip0_13_176">
<rect width="500" height="135" fill="white"/>
</clipPath>
</defs>
</svg>
